<svg width="22" height="18.366" xmlns="http://www.w3.org/2000/svg" viewBox="0 0 48 40"><path d="M46.355 40a1.675 1.675 0 0 1-.36-.04l-7.377-1.617H4.927A4.961 4.961 0 0 1 0 33.361V4.982A4.961 4.961 0 0 1 4.927 0h35.811a4.961 4.961 0 0 1 4.927 4.982V31.3l2.235 6.449a1.7 1.7 0 0 1-.2 1.529 1.66 1.66 0 0 1-1.345.722zM8.947 25.844a2.331 2.331 0 0 0 0 4.661h28.184a2.331 2.331 0 0 0 0-4.661zm0-9.321a2.331 2.331 0 0 0 0 4.661h28.184a2.331 2.331 0 0 0 0-4.661zm0-8.9a2.33 2.33 0 0 0 0 4.659h28.184a2.33 2.33 0 0 0 0-4.659z" fill="currentColor"/></svg>