<svg fill="currentColor" xmlns="http://www.w3.org/2000/svg" viewBox="0 0 20 20"><path d="M18.856 19.721h-8a.835.835 0 1 1 0-1.669H18v-16.1h-7.145a.847.847 0 0 1-.859-.834.847.847 0 0 1 .859-.835h8a.845.845 0 0 1 .857.832v17.768a.821.821 0 0 1-.249.591.87.87 0 0 1-.607.246zM7.997 14.367a.858.858 0 0 1-.8-.514.815.815 0 0 1 .189-.91l1.687-1.638.487-.473H1.14a.835.835 0 1 1 0-1.669h8.79l-.487-.475L7.391 6.7a.816.816 0 0 1 0-1.178.875.875 0 0 1 1.212 0l3.637 3.534a.823.823 0 0 1 .243.727l-.007.044.007.043a.822.822 0 0 1-.24.722l-3.639 3.529a.865.865 0 0 1-.606.244z"/><path d="M18.853 19.448a.564.564 0 0 0 .572-.556V1.111a.564.564 0 0 0-.572-.556h-8a.576.576 0 0 0-.515.271.543.543 0 0 0 0 .569.576.576 0 0 0 .515.271h7.428v16.666h-7.426a.576.576 0 0 0-.515.271.543.543 0 0 0 0 .569.576.576 0 0 0 .515.271h8M8 14.091a.576.576 0 0 0 .4-.163l3.636-3.536a.542.542 0 0 0 .16-.481l-.014-.088.014-.087a.542.542 0 0 0-.16-.481L8.4 5.718a.582.582 0 0 0-.559-.159.564.564 0 0 0-.412.4.546.546 0 0 0 .163.544L9.642 8.5l.975.948H1.142a.556.556 0 0 0 0 1.111h9.112l-.974.941-1.686 1.643a.545.545 0 0 0-.123.6.572.572 0 0 0 .529.348M18.853 20h-8a1.111 1.111 0 1 1 0-2.222h6.857V2.222h-6.855a1.127 1.127 0 0 1-1.143-1.111A1.127 1.127 0 0 1 10.855 0h8a1.159 1.159 0 0 1 .811.324 1.1 1.1 0 0 1 .334.787v17.778a1.1 1.1 0 0 1-.337.787 1.159 1.159 0 0 1-.811.323zM8 14.647a1.143 1.143 0 0 1-1.056-.686 1.089 1.089 0 0 1 .246-1.211l1.685-1.638H1.142a1.111 1.111 0 1 1 0-2.222h8.1L7.19 6.9a1.09 1.09 0 0 1 0-1.572 1.166 1.166 0 0 1 1.616 0l3.636 3.536a1.088 1.088 0 0 1 .32.963 1.092 1.092 0 0 1-.32.963l-3.636 3.533a1.159 1.159 0 0 1-.806.324z"/></svg>