<svg xmlns="http://www.w3.org/2000/svg" width="218" height="39"><defs><linearGradient id="linear-gradient" x1=".5" y1="1" x2=".5" gradientUnits="objectBoundingBox"><stop offset="0" stop-color="#fff" stop-opacity="0"/><stop offset=".179" stop-color="#ededed" stop-opacity=".18"/><stop offset=".438" stop-color="#dbdbdb" stop-opacity=".439"/><stop offset=".708" stop-color="#d0d0d0" stop-opacity=".71"/><stop offset="1" stop-color="#ccc"/></linearGradient><style>.cls-5{fill:#fd3f45;fill-rule:evenodd}</style></defs><g id="logo" transform="translate(-18 -12)"><g id="Group_5" data-name="Group 5" transform="translate(-573.81 -229.27)"><circle id="Ellipse_3" data-name="Ellipse 3" cx="19.5" cy="19.5" r="19.5" transform="translate(591.81 241.27)" style="fill:#fd3f45"/><g id="Group_4" data-name="Group 4"><path id="Path_8" data-name="Path 8" d="M608.47 253.74v15.38l6 3.48v-18.86z" style="fill-rule:evenodd;fill:#fff"/><path id="Path_9" data-name="Path 9" d="M608.47 253.74v15.38l6 3.48v-18.86z" style="fill:url(#linear-gradient);fill-rule:evenodd"/><path id="Path_10" data-name="Path 10" d="m614.47 248.95-10 6.5 10 6.5z" style="fill:#fff"/></g></g><g id="Group_45" data-name="Group 45" transform="translate(-1.27)"><path id="Path_11" data-name="Path 11" class="cls-5" d="M758.48 252.77h-10.8a7.6 7.6 0 0 0-7.6 7.6v.8a7.6 7.6 0 0 0 7.6 7.6h10.8a7.6 7.6 0 0 0 7.6-7.6v-.8a7.6 7.6 0 0 0-7.6-7.6zm3.6 8.2a3.8 3.8 0 0 1-3.8 3.8h-10.4a3.8 3.8 0 0 1-3.8-3.8v-.4a3.8 3.8 0 0 1 3.8-3.8h10.4a3.8 3.8 0 0 1 3.8 3.8z" transform="translate(-573.81 -229.27)"/><path id="Path_12" data-name="Path 12" class="cls-5" d="M767.08 252.77v16h4v-12.69l13 12.69h7v-16h-4v13.13l-13.68-13.13z" transform="translate(-573.81 -229.27)"/><path id="Path_13" data-name="Path 13" class="cls-5" d="M792.08 252.77v16h19v-4h-15v-2h14v-4h-14v-2h15v-4z" transform="translate(-573.81 -229.27)"/><path id="Path_14" data-name="Path 14" class="fill:#000" d="M642.08 252.77v16h4v-5h12.5a5.5 5.5 0 0 0 0-11h-16.5zm4 7v-3h12.5a1.5 1.5 0 0 1 0 3z" transform="translate(-573.81 -229.27)"/><path id="Path_15" data-name="Path 15" class="fill:#000" d="M672.68 252.77a7.6 7.6 0 0 0-7.6 7.6v.8a7.6 7.6 0 0 0 7.6 7.6h10.8a7.6 7.6 0 0 0 7.6-7.6v-.8a7.6 7.6 0 0 0-7.6-7.6h-10.8zm.2 4h10.4a3.8 3.8 0 0 1 3.8 3.8v.4a3.8 3.8 0 0 1-3.8 3.8h-10.4a3.8 3.8 0 0 1-3.8-3.8v-.4a3.8 3.8 0 0 1 3.8-3.8z" transform="translate(-573.81 -229.27)"/><path id="Path_16" data-name="Path 16" class="fill:#fff" d="M735.08 252.77v13.13l-13.69-13.13h-6.31v15.73l-6.09-4.75a5.5 5.5 0 0 0-.41-10.98c-.17 0-.34.01-.51.02l.01-.02h-16v16h4v-5h6.63l6.37 5h10v-12.7l13 12.7h7v-16h-4zm-39 7v-3h12.5a1.5 1.5 0 0 1 0 3z" transform="translate(-573.81 -229.27)"/></g></g></svg>