<svg xmlns="http://www.w3.org/2000/svg" width="4.711" height="17" viewBox="0 0 4.711 17">
  <path id="steppers_FILL0_wght400_GRAD0_opsz48" d="M67.355-590.289a2.28,2.28,0,0,1-1.68-.676,2.28,2.28,0,0,1-.676-1.68,2.28,2.28,0,0,1,.676-1.68,2.28,2.28,0,0,1,1.68-.676,2.28,2.28,0,0,1,1.68.676,2.28,2.28,0,0,1,.676,1.68,2.28,2.28,0,0,1-.676,1.68A2.28,2.28,0,0,1,67.355-590.289Zm6.145,0a2.28,2.28,0,0,1-1.68-.676,2.28,2.28,0,0,1-.676-1.68,2.28,2.28,0,0,1,.676-1.68A2.28,2.28,0,0,1,73.5-595a2.28,2.28,0,0,1,1.68.676,2.28,2.28,0,0,1,.676,1.68,2.28,2.28,0,0,1-.676,1.68A2.28,2.28,0,0,1,73.5-590.289Zm6.145,0a2.28,2.28,0,0,1-1.68-.676,2.28,2.28,0,0,1-.676-1.68,2.28,2.28,0,0,1,.676-1.68,2.28,2.28,0,0,1,1.68-.676,2.28,2.28,0,0,1,1.68.676,2.28,2.28,0,0,1,.676,1.68,2.28,2.28,0,0,1-.676,1.68A2.28,2.28,0,0,1,79.645-590.289Z" transform="translate(-590.289 -65) rotate(90)"/>
</svg>
