<svg fill="currentColor" xmlns="http://www.w3.org/2000/svg" viewBox="0 0 20 20"><path d="M10.001 19.721a9.719 9.719 0 1 1 6.872-2.848 9.72 9.72 0 0 1-6.872 2.848zM7.169 5.905v8.2l.409-.2 7.279-3.639.511-.256-.511-.256-7.273-3.645-.409-.2z"/><path d="M10.003 19.429a9.427 9.427 0 1 0-6.666-2.758 9.427 9.427 0 0 0 6.666 2.758M6.885 5.441l.826.409 7.272 3.632 1.02.51-1.02.511-7.272 3.637-.826.409V5.441m3.118 14.562a10 10 0 1 1 7.07-2.929 10 10 0 0 1-7.07 2.929zM7.46 6.365v7.272l7.272-3.634z"/></svg>