<svg xmlns="http://www.w3.org/2000/svg" width="20" height="20"><path d="m10 16.575-5.223 3.291a.772.772 0 0 1-.477.132.812.812 0 0 1-.449-.162.889.889 0 0 1-.337-.911l1.376-6.23-4.6-4.2a.8.8 0 0 1-.267-.456 1.2 1.2 0 0 1 .014-.485.72.72 0 0 1 .253-.4.876.876 0 0 1 .477-.191l6.093-.558L9.219.527a.812.812 0 0 1 .337-.4.829.829 0 0 1 .9 0 .812.812 0 0 1 .337.4l2.359 5.878 6.093.558a.876.876 0 0 1 .477.191.72.72 0 0 1 .253.4 1.2 1.2 0 0 1 .014.485.8.8 0 0 1-.267.456l-4.6 4.2 1.376 6.23a.889.889 0 0 1-.337.911.812.812 0 0 1-.449.162.772.772 0 0 1-.477-.132z"/></svg>