<svg fill="currentColor" xmlns="http://www.w3.org/2000/svg" viewBox="0 0 20 20"><path d="M10.001 9.663a4.424 4.424 0 0 1-3.375-1.352 4.71 4.71 0 0 1-1.312-3.476 4.71 4.71 0 0 1 1.312-3.478A4.424 4.424 0 0 1 10.001.004a4.424 4.424 0 0 1 3.373 1.352 4.71 4.71 0 0 1 1.312 3.476 4.71 4.71 0 0 1-1.313 3.472 4.424 4.424 0 0 1-3.372 1.357zM1.874 19.995a1.839 1.839 0 0 1-1.325-.562 1.954 1.954 0 0 1-.548-1.364v-1.092a3.622 3.622 0 0 1 .593-2.093 3.842 3.842 0 0 1 1.535-1.32 23.028 23.028 0 0 1 4.01-1.453 15.777 15.777 0 0 1 3.862-.483 15.117 15.117 0 0 1 3.844.5 26.093 26.093 0 0 1 4 1.433 3.794 3.794 0 0 1 1.562 1.32 3.622 3.622 0 0 1 .594 2.092v1.1a1.954 1.954 0 0 1-.547 1.368 1.839 1.839 0 0 1-1.33.563zm14.749-8.169a.581.581 0 0 1-.572-.589l16.25-1.762H14.338a.568.568 0 0 1-.515-.287.6.6 0 0 1 0-.6.568.568 0 0 1 .515-.287h1.715V6.532a.572.572 0 0 1 1.143 0v1.766h1.715a.59.59 0 0 1 0 1.178h-1.716v1.767a.581.581 0 0 1-.572.588z"/></svg>