<svg xmlns="http://www.w3.org/2000/svg" viewBox="0 0 17.292 20" width="21.368" height="20" > 
  <path id="flag_FILL0_wght300_GRAD0_opsz48" d="M220.7-760a.668.668,0,0,1-.5-.2.682.682,0,0,1-.2-.5v-18.414a.857.857,0,0,1,.256-.632.863.863,0,0,1,.635-.255h8.01a.9.9,0,0,1,.555.194.822.822,0,0,1,.317.521l.409,1.884H236.4a.866.866,0,0,1,.635.254.85.85,0,0,1,.256.629v8.637a.855.855,0,0,1-.256.623.856.856,0,0,1-.635.259h-5.371a.916.916,0,0,1-.562-.185.8.8,0,0,1-.309-.511l-.42-1.884H221.4v8.881a.671.671,0,0,1-.2.5A.688.688,0,0,1,220.7-760Z" transform="translate(-220.001 779.999)"/>
</svg>
