<svg xmlns="http://www.w3.org/2000/svg" width="24" height="24" viewBox="0 0 24 24"><path d="M135-860a2.893,2.893,0,0,1-2.125-.875A2.893,2.893,0,0,1,132-863a2.744,2.744,0,0,1,.025-.362,1.838,1.838,0,0,1,.075-.338l-7.05-4.1a3.293,3.293,0,0,1-.95.587A2.9,2.9,0,0,1,123-867a2.893,2.893,0,0,1-2.125-.875A2.893,2.893,0,0,1,120-870a2.893,2.893,0,0,1,.875-2.125A2.893,2.893,0,0,1,123-873a2.9,2.9,0,0,1,1.1.213,3.293,3.293,0,0,1,.95.587l7.05-4.1a1.838,1.838,0,0,1-.075-.338A2.744,2.744,0,0,1,132-877a2.893,2.893,0,0,1,.875-2.125A2.893,2.893,0,0,1,135-880a2.893,2.893,0,0,1,2.125.875A2.893,2.893,0,0,1,138-877a2.893,2.893,0,0,1-.875,2.125A2.893,2.893,0,0,1,135-874a2.9,2.9,0,0,1-1.1-.213,3.293,3.293,0,0,1-.95-.587l-7.05,4.1a1.838,1.838,0,0,1,.075.338A2.743,2.743,0,0,1,126-870a2.743,2.743,0,0,1-.025.362,1.838,1.838,0,0,1-.075.338l7.05,4.1a3.293,3.293,0,0,1,.95-.587A2.9,2.9,0,0,1,135-866a2.893,2.893,0,0,1,2.125.875A2.893,2.893,0,0,1,138-863a2.893,2.893,0,0,1-.875,2.125A2.893,2.893,0,0,1,135-860Z" transform="translate(-120 880)"/></svg>